<svg width="1500" height="1500" viewBox="0 0 1500 1500" fill="none" xmlns="http://www.w3.org/2000/svg">
<g clip-path="url(#clip0_55_3)">
<path d="M630.65 1253.79C630.65 1255.02 631.633 1256 632.858 1256H1629.78C1631.01 1256 1631.99 1255.02 1631.99 1253.79C1631.99 1252.57 1631.01 1251.58 1629.78 1251.58H632.858C631.633 1251.58 630.65 1252.57 630.65 1253.79Z" fill="#CCCCCC"/>
<path d="M1324.19 751.87V1142.56L1318.59 1142.52L1279.53 1142.35V826.831L1308.7 732.332L1308.85 731.831L1309.68 732.926L1324.19 751.87Z" fill="#F2F2F2"/>
<path d="M706.001 826.835H467.896V1142.35H706.001V826.835Z" fill="#E6E6E6"/>
<path d="M804.527 1142.35H702.482V826.833L731.806 731.826L804.527 826.833V1142.35Z" fill="#F2F2F2"/>
<path d="M616.858 1035.62H554.693V1142.35H616.858V1035.62Z" fill="#F2F2F2"/>
<path d="M615.886 877.858H559.186V975.212H615.886V877.858Z" fill="#F2F2F2"/>
<path d="M703.069 965.827H464.964V996.323H703.069V965.827Z" fill="#F2F2F2"/>
<path d="M467.896 826.831H339.053V1142.35H467.896V826.831Z" fill="#E6E6E6"/>
<path d="M381.098 1035.61H339.053V1142.35H381.098V1035.61Z" fill="#F2F2F2"/>
<path d="M376.607 877.856H339.053V975.213H376.607V877.856Z" fill="#F2F2F2"/>
<path d="M470.828 965.824H339.053V996.328H470.828V965.824Z" fill="#F2F2F2"/>
<path d="M830.195 843.66C828.58 847.519 824.981 849.913 820.806 849.913H820.787L804.533 849.894L764.121 849.839H762.47L752.414 849.82L706.008 849.746H702.483L481.886 849.43C481.664 849.56 476.636 849.69 467.896 849.82C445.241 850.173 397.704 850.507 344.656 850.785C342.801 850.803 340.927 850.803 339.053 850.822V731.274C340.908 731.293 342.782 731.293 344.656 731.293C428.505 731.627 520.647 732.109 521.668 732.759H725.955C727.754 732.759 729.536 733.241 731.076 734.169C731.874 734.596 732.597 735.171 733.247 735.82L740.594 743.316L744.398 747.194L828.079 832.564C831.011 835.552 831.827 839.801 830.195 843.66V843.66Z" fill="#3F3D56"/>
<path d="M485.523 850.117H463.257V1143.28H485.523V850.117Z" fill="#F2F2F2"/>
<path d="M1283.05 826.834H1044.95V1142.35H1283.05V826.834Z" fill="#E6E6E6"/>
<path d="M1193.91 1035.62H1131.74V1142.35H1193.91V1035.62Z" fill="#F2F2F2"/>
<path d="M1192.94 877.857H1136.23V975.211H1192.94V877.857Z" fill="#F2F2F2"/>
<path d="M1280.12 965.827H1042.01V996.323H1280.12V965.827Z" fill="#F2F2F2"/>
<path d="M1311.61 734.521C1311.02 733.927 1310.37 733.389 1309.68 732.925C1309.37 732.721 1309.03 732.517 1308.7 732.331C1306.96 731.403 1305.01 730.902 1303 730.902H1079.22C1074.41 730.902 1070.07 733.741 1068.16 738.139L1051.09 777.345L1026.24 834.363C1024.61 838.111 1024.96 842.379 1027.21 845.793C1029.43 849.207 1033.2 851.229 1037.28 851.248L1044.95 851.266L1060.09 851.285L1279.53 851.6H1288.12L1307.49 840.839L1313.06 746.21L1311.61 734.52V734.521Z" fill="#3F3D56"/>
<path d="M1324.19 1139.77H339.053V1143.48H1324.19V1139.77Z" fill="#CCCCCC"/>
<path d="M915.828 885.16C913.805 887.09 911.838 889.483 909.871 892.526V1139.79H853.001L853.243 1138.28L861.073 1090.49L864.728 1068.18L869.923 1036.51L873.449 1014.95L892.282 900.022C890.111 890.541 888.07 883.156 886.14 877.479L915.827 885.16L915.828 885.16Z" fill="#3F3D56"/>
<path d="M1043.41 748.285C1039.77 741.104 1035.62 733.608 1031.01 725.778C1051.55 732.718 1053.52 740.733 1043.41 748.285Z" fill="#C09AEC"/>
<path d="M753.956 834.007C757.574 841.187 761.731 848.684 766.332 856.514C745.792 849.574 743.825 841.559 753.956 834.007Z" fill="#C09AEC"/>
<path d="M1043.41 754.778C1040.87 757.397 1037.53 759.966 1033.52 762.484L1033.46 762.521C1033.72 759.679 1033.75 756.8 1033.52 753.906C1030.87 718.837 993.924 682.192 957.316 697.054C936.943 700.561 917.739 725.814 911.208 702.973C896.234 671.43 880.518 704.179 858.995 703.715C813.054 709.245 781.548 718.095 761.935 730.768C748.706 739.303 740.876 749.601 737.685 761.81C732.73 780.977 739.132 804.82 753.957 834.006C756.499 832.095 759.839 830.221 763.828 828.403C765.951 827.434 768.283 826.483 770.767 825.549C765.105 837.255 763.046 850.83 763.828 864.602C766.481 912.673 803.442 962.879 840.032 942.507C860.405 937.7 879.609 903.109 886.14 934.419C886.66 935.894 887.161 937.293 887.699 938.564C887.699 938.59 887.717 938.59 887.717 938.615C895.362 957.564 903.248 954.918 912.043 948.229C912.043 948.229 912.061 948.229 912.061 948.204C919.947 942.252 928.538 933.121 938.353 933.401C984.295 925.822 1015.8 913.69 1035.41 896.318C1048.64 884.593 1056.47 870.477 1059.66 853.742C1064.62 827.494 1058.22 794.785 1043.41 754.778V754.778Z" fill="#C09AEC"/>
<path d="M956.278 1124.94C958.79 1123.65 961.02 1118.43 957.815 1121.26C957.65 1121.41 957.723 1120.9 957.669 1120.68L957.727 1120.55C959.679 1115.89 966.294 1115.92 968.229 1120.58C969.947 1124.72 972.133 1128.87 972.672 1133.24C972.913 1135.17 972.805 1137.14 972.376 1139.03C976.401 1130.24 978.519 1120.64 978.519 1110.99C978.519 1108.56 978.386 1106.14 978.114 1103.72C977.891 1101.74 977.583 1099.77 977.185 1097.82C975.031 1087.29 970.367 1077.25 963.639 1068.87C960.405 1067.1 957.708 1064.34 956.078 1061.03C955.493 1059.83 955.035 1058.55 954.817 1057.24C955.185 1057.28 956.205 1051.68 955.928 1051.33C956.441 1050.56 957.359 1050.17 957.919 1049.41C960.705 1045.63 964.544 1046.29 966.547 1051.43C970.828 1053.59 970.87 1057.17 968.243 1060.62C966.572 1062.81 966.342 1065.77 964.876 1068.12C965.027 1068.31 965.184 1068.5 965.335 1068.69C968.101 1072.24 970.493 1076.06 972.51 1080.06C971.94 1075.61 972.782 1070.25 974.217 1066.79C975.85 1062.85 978.911 1059.53 981.607 1056.12C984.845 1052.03 991.484 1053.82 992.055 1059L992.071 1059.15C991.671 1059.38 991.278 1059.62 990.895 1059.87C988.71 1061.32 989.465 1064.71 992.055 1065.11L992.113 1065.12C991.968 1066.56 991.721 1067.99 991.359 1069.39C994.817 1082.77 987.351 1087.64 976.69 1087.86C976.455 1087.98 976.226 1088.1 975.99 1088.21C977.071 1091.26 977.933 1094.38 978.573 1097.54C979.146 1100.33 979.545 1103.15 979.768 1105.99C980.045 1109.57 980.021 1113.16 979.719 1116.74L979.738 1116.61C980.504 1112.68 982.64 1109 985.741 1106.45C990.362 1102.66 996.889 1101.26 1001.87 1098.21C1004.27 1096.74 1007.35 1098.64 1006.93 1101.42L1006.91 1101.56C1006.17 1101.86 1005.44 1102.21 1004.74 1102.6C1004.34 1102.83 1003.95 1103.07 1003.57 1103.32C1001.38 1104.76 1002.14 1108.15 1004.73 1108.55L1004.78 1108.56L1004.91 1108.58C1003.63 1111.6 1001.86 1114.41 999.638 1116.83C997.475 1128.5 988.188 1129.61 978.253 1126.21H978.247C977.161 1130.94 975.574 1135.56 973.535 1139.97H956.7C956.64 1139.78 956.585 1139.59 956.531 1139.4C958.088 1139.5 959.657 1139.41 961.189 1139.12C959.94 1137.59 958.691 1136.05 957.442 1134.51C957.412 1134.48 957.388 1134.45 957.364 1134.42C956.73 1133.64 956.091 1132.86 955.457 1132.08L955.457 1132.07C955.417 1129.67 955.706 1127.27 956.278 1124.94L956.278 1124.94V1124.94Z" fill="#3F3D56"/>
<path d="M1044.5 1069.2C1041.74 1069.04 1038.97 1068.85 1036.21 1068.7C1032.03 1068.44 1027.88 1068.2 1023.74 1067.96C1020.48 1067.78 1017.23 1067.61 1014 1067.42V1002.63C1014 1001.09 1012.76 999.847 1011.22 999.847C1009.68 999.847 1008.43 1001.09 1008.43 1002.63V1038.01C1002.5 1047.9 1002.38 1057.72 1008.43 1067.42C980.23 1070.76 948.409 1072.41 913.972 1072.88H913.73C908.776 1072.93 903.748 1072.97 898.683 1072.99C893.098 1073.01 1009.92 1072.99 1004.22 1072.97C998.191 1072.91 992.087 1072.86 985.945 1072.75C974.627 1072.58 963.123 1072.3 951.433 1071.93C937.796 1071.52 923.935 1071 909.871 1070.39C908.387 1070.32 906.939 1070.26 905.455 1070.19H905.436C902.115 1070.04 898.775 1069.89 895.435 1069.72C892.726 1069.61 889.999 1069.46 887.253 1069.33C883.264 1069.15 879.274 1068.94 875.267 1068.74H875.248C871.741 1068.55 868.253 1068.37 864.746 1068.18H864.727C860.182 1067.94 855.617 1067.68 851.034 1067.42C854.374 1058.7 853.762 1048.7 851.034 1038.01V1002.63C851.034 1001.09 849.81 999.847 848.251 999.847C846.73 999.847 845.468 1001.09 845.468 1002.63V1015.53C840.866 1017.05 837.526 1021.37 837.526 1026.49C837.526 1031.61 840.866 1035.94 845.468 1037.44V1068C840.866 1069.52 837.526 1073.84 837.526 1078.96C837.526 1084.08 840.866 1088.41 845.468 1089.91V1135.41C845.468 1136.95 846.73 1138.19 848.251 1138.19C849.81 1138.19 851.034 1136.95 851.034 1135.41V1090.49H1008.43V1135.41C1008.43 1136.95 1009.68 1138.19 1011.22 1138.19C1012.76 1138.19 1014 1136.95 1014 1135.41V1090.49H1048.92V1069.48C1047.44 1069.39 1045.97 1069.3 1044.5 1069.2H1044.5Z" fill="#E6E6E6"/>
<path d="M1259.66 619H403.586C367.998 619 339.053 647.945 339.053 683.533V1191.47C339.053 1227.05 367.998 1256 403.586 1256H1259.66C1295.25 1256 1324.19 1227.05 1324.19 1191.47V683.533C1324.19 647.945 1295.25 619 1259.66 619ZM1318.59 999.946V1191.47C1318.59 1224.01 1292.21 1250.4 1259.66 1250.4H403.586C371.041 1250.4 344.656 1224.01 344.656 1191.47V683.533C344.656 650.988 371.041 624.603 403.586 624.603H943.248C1045.04 624.603 1158.24 660.006 1225.85 725.801C1254.47 753.633 1257.77 791.094 1276.36 826.831C1277.44 828.89 1278.49 830.968 1279.53 833.065C1280.74 835.477 1281.91 837.889 1283.06 840.338C1284.82 844.049 1286.51 847.816 1288.12 851.601C1307.74 897.097 1318.59 947.25 1318.59 999.946Z" fill="#E6E6E6"/>
<path d="M207.889 477.964C222.106 468.236 240.404 489.676 230.451 503.024C220.389 516.517 198.392 512.692 190.817 498.915C181.153 481.336 190.777 460.426 206.352 450.221C224.045 438.628 245.728 437.976 266.157 439.062C286.792 440.16 306.927 441.616 327.484 438.657C344.885 436.108 361.887 431.338 378.075 424.463C411.358 410.476 440.583 388.327 463.053 360.061C473.538 346.753 483.337 331.795 489.339 315.864C493.963 303.593 496.153 287.454 489.602 275.443C488.177 272.74 486.169 270.389 483.722 268.56C481.276 266.731 478.453 265.47 475.459 264.868C472.465 264.267 469.374 264.339 466.412 265.082C463.449 265.824 460.689 267.217 458.332 269.159C447.414 278.107 444.466 294.721 452.813 306.299C461.77 318.722 478.672 322.98 493.224 320.718C513.448 317.575 529.825 303.291 545.308 290.994L659.974 199.922C678.881 184.905 697.596 169.596 716.747 154.891C732.322 142.933 751.326 131.338 771.611 137.725C779.787 140.3 788.028 146.397 790.072 155.157C790.836 159.169 790.49 163.313 789.073 167.142C787.656 170.972 785.221 174.342 782.031 176.889C780.573 178.127 778.875 179.049 777.042 179.595C775.21 180.142 773.284 180.301 771.387 180.063C769.49 179.825 767.662 179.195 766.022 178.213C764.381 177.231 762.962 175.918 761.855 174.359C757.581 168.394 757.229 159.891 759.691 153.151C766.271 135.14 790.414 133.256 806.526 134.721C825.537 136.648 843.9 142.695 860.339 152.44C894.388 172.224 919.569 204.408 934.339 240.589C950.705 280.677 955.746 325.038 955.078 368.073C954.942 376.85 954.335 386.559 949.396 394.127C944.559 401.539 936.121 403.783 928.552 398.826C926.087 397.212 922.918 394.067 923.561 390.75C924.367 386.585 932.663 386.553 935.987 386.713C945.081 387.149 953.679 391.735 960.193 397.918C975.674 412.612 976.878 435.095 974.859 455.086C972.643 477.033 966.32 498.86 968.831 521.077C972.945 557.476 1002.8 577.701 1032.12 594.434C1047.14 603.003 1062.48 611.196 1075.99 622.098C1089.75 633.252 1101.8 646.37 1111.75 661.031C1131.4 689.96 1142.99 723.61 1145.31 758.512C1146.48 775.951 1145.11 793.467 1141.23 810.508C1137.37 827.176 1131.29 848.188 1115.28 857.141C1111.47 859.324 1107.08 860.283 1102.7 859.89C1098.32 859.497 1094.17 857.771 1090.81 854.943C1084.32 849.736 1081.15 840.492 1087.85 833.986C1093.4 828.595 1102.29 829.731 1108.99 831.923C1117.05 834.561 1123.33 839.485 1129.34 845.302C1140.8 856.39 1154.21 870.002 1171.65 866.461C1174.87 865.807 1173.5 860.877 1170.29 861.53C1149.24 865.805 1136.55 841.335 1121.03 831.914C1109.79 825.094 1090.6 820.022 1081.82 833.324C1072.34 847.679 1087.58 863.167 1101.74 865.015C1120.15 867.419 1132.91 849.412 1139.09 834.548C1153.43 800.077 1153.87 759.657 1145.1 723.762C1136.34 687.31 1117.39 654.104 1090.46 628.023C1076.87 615.065 1061.29 605.131 1045.04 595.885C1028.63 586.551 1011.54 577.596 997.497 564.785C989.722 557.925 983.536 549.451 979.37 539.953C975.205 530.456 973.16 520.164 973.379 509.794C973.529 485.911 981.204 462.735 980.726 438.806C980.329 418.966 973.59 399.593 956.337 388.423C949.228 383.598 940.738 381.227 932.159 381.671C928.669 381.958 923.767 382.546 920.892 384.732C918.577 386.492 918.138 390.613 918.605 393.276C919.714 399.603 925.696 403.997 931.506 405.758C935.038 406.894 938.829 406.94 942.388 405.889C945.946 404.839 949.105 402.741 951.455 399.869C957.042 393.414 958.982 384.806 959.773 376.517C960.844 365.287 960.252 353.751 959.757 342.502C957.746 296.788 948.716 249.98 924.968 210.277C904.782 176.529 873.387 148.232 835.744 135.713C818.005 129.813 796.963 126.278 778.66 131.643C762.912 136.259 750.845 149.225 753.445 166.397C755.647 180.934 770.703 190.988 783.971 181.813C787.101 179.648 789.727 176.833 791.67 173.56C793.613 170.286 794.828 166.632 795.23 162.846C795.632 159.06 795.213 155.232 794.001 151.624C792.789 148.015 790.813 144.71 788.208 141.935C775.381 128.498 754.467 128.595 738.462 135.423C728.825 139.536 720.292 145.697 712.062 152.098C701.571 160.257 691.228 168.612 680.821 176.878L555.453 276.45C545.558 284.309 535.823 292.455 525.597 299.883C516.056 306.815 505.529 313.236 493.783 315.462C477.242 318.596 451.058 310.377 453.064 289.389C453.843 281.239 459.24 272.236 467.489 269.899C475.574 267.608 483.208 272.811 486.214 280.178C492.841 296.418 485.059 314.994 477.318 329.251C458.153 364.55 427.922 393.298 392.501 412.003C374.771 421.388 355.767 428.135 336.09 432.03C313.987 436.374 292.299 435.524 269.951 434.168C248.288 432.854 225.541 432.988 206.232 444.281C190.4 453.542 179.838 470.335 182.376 489.048C184.58 505.299 197.608 517.719 214.41 516.347C228.514 515.195 242.683 503.146 237.679 487.843C233.536 475.172 217.542 465.179 205.309 473.549C202.61 475.396 205.164 479.829 207.889 477.964H207.889Z" fill="#3F3D56"/>
<path d="M1291.11 847.147H1167.27C1165.33 847.15 1163.48 847.92 1162.11 849.288C1160.74 850.657 1159.97 852.513 1159.97 854.448V931.582C1159.97 933.518 1160.74 935.373 1162.11 936.742C1163.48 938.111 1165.33 938.881 1167.27 938.883H1291.11C1293.04 938.881 1294.9 938.111 1296.27 936.742C1297.64 935.373 1298.41 933.518 1298.41 931.582V854.448C1298.41 852.513 1297.64 850.657 1296.27 849.288C1294.9 847.92 1293.04 847.15 1291.11 847.147Z" fill="#F2F2F2"/>
<path d="M1291.11 847.147H1167.27C1165.33 847.15 1163.48 847.92 1162.11 849.288C1160.74 850.657 1159.97 852.513 1159.97 854.448V931.582C1159.97 933.518 1160.74 935.373 1162.11 936.742C1163.48 938.111 1165.33 938.881 1167.27 938.883H1291.11C1293.04 938.881 1294.9 938.111 1296.27 936.742C1297.64 935.373 1298.41 933.518 1298.41 931.582V854.448C1298.41 852.513 1297.64 850.657 1296.27 849.288C1294.9 847.92 1293.04 847.15 1291.11 847.147ZM1293.5 902.554C1293.47 910.406 1290.37 917.935 1284.86 923.523C1279.34 929.112 1271.86 932.317 1264.01 932.449C1251.44 932.612 1270.96 932.676 1255.81 932.676C1221.15 932.676 1185.01 932.345 1171.53 932.13C1169.76 932.094 1168.07 931.365 1166.82 930.099C1165.58 928.833 1164.88 927.132 1164.87 925.357V854.454C1164.87 853.818 1165.13 853.209 1165.57 852.759C1166.02 852.309 1166.63 852.055 1167.27 852.053H1291.1C1291.74 852.053 1292.35 852.306 1292.8 852.755C1293.25 853.203 1293.5 853.812 1293.5 854.448L1293.5 902.554Z" fill="#E6E6E6"/>
<path d="M1275.86 802.731H1181.51C1180.68 802.733 1179.86 802.992 1179.18 803.473C1178.5 803.954 1177.98 804.634 1177.7 805.421L1163.13 846.321C1162.91 846.931 1162.84 847.585 1162.93 848.227C1163.02 848.869 1163.26 849.481 1163.63 850.011C1164 850.541 1164.5 850.973 1165.07 851.272C1165.65 851.571 1166.28 851.727 1166.93 851.728L1293.48 851.953H1293.48C1294.15 851.953 1294.81 851.787 1295.4 851.469C1295.99 851.152 1296.49 850.692 1296.86 850.133C1297.23 849.574 1297.45 848.932 1297.51 848.264C1297.57 847.597 1297.47 846.926 1297.2 846.31L1296.98 846.404L1297.2 846.31L1279.58 805.185C1279.27 804.457 1278.75 803.836 1278.09 803.399C1277.43 802.963 1276.66 802.731 1275.86 802.731Z" fill="#E6E6E6"/>
<path d="M1297.53 847.198C1297.53 847.747 1297.42 848.29 1297.2 848.794L1279.59 880.45C1279.27 881.177 1278.75 881.796 1278.09 882.232C1277.43 882.667 1276.66 882.9 1275.86 882.901H1181.51C1180.68 882.9 1179.86 882.642 1179.18 882.161C1178.5 881.68 1177.98 881 1177.7 880.213L1163.13 848.783C1162.95 848.282 1162.87 847.751 1162.9 847.22C1162.92 846.689 1163.05 846.168 1163.28 845.688C1163.51 845.208 1163.83 844.777 1164.22 844.421C1164.62 844.064 1165.08 843.789 1165.58 843.611C1166.01 843.455 1166.47 843.374 1166.93 843.374L1182.39 843.345L1188.7 843.334L1271.72 843.188L1278.03 843.178L1293.48 843.148H1293.48C1294.56 843.149 1295.59 843.575 1296.34 844.335C1297.1 845.094 1297.53 846.124 1297.53 847.198Z" fill="#E6E6E6"/>
<path d="M1176.55 905.007C1178.42 905.007 1204.12 906.578 1204.12 908.45C1204.12 910.321 1178.42 911.785 1176.55 911.785C1175.65 911.785 1174.79 911.428 1174.16 910.793C1173.52 910.157 1173.16 909.295 1173.16 908.396C1173.16 907.497 1173.52 906.635 1174.16 906C1174.79 905.364 1175.65 905.007 1176.55 905.007V905.007Z" fill="#E6E6E6"/>
<path d="M1269.99 777.851H1190.43C1188.3 777.853 1186.25 778.701 1184.75 780.21C1183.24 781.718 1182.39 783.763 1182.39 785.896V882.901H1275.86C1276.63 882.904 1277.38 882.685 1278.03 882.271V785.896C1278.03 783.763 1277.18 781.718 1275.67 780.21C1274.17 778.701 1272.12 777.853 1269.99 777.851Z" fill="#F2F2F2"/>
<path d="M1239.62 784.373H1196.02C1194.08 784.375 1192.22 785.147 1190.85 786.52C1189.47 787.893 1188.7 789.755 1188.7 791.697V882.901H1271.72V816.481C1271.71 807.969 1268.32 799.807 1262.31 793.788C1256.29 787.769 1248.13 784.383 1239.62 784.373Z" fill="white"/>
<path d="M1257.57 874.801H1202.84C1202.37 874.801 1201.91 874.989 1201.58 875.323C1201.25 875.658 1201.06 876.112 1201.06 876.585C1201.06 877.059 1201.25 877.513 1201.58 877.847C1201.91 878.182 1202.37 878.37 1202.84 878.37H1257.57C1258.05 878.37 1258.5 878.182 1258.84 877.847C1259.17 877.513 1259.36 877.059 1259.36 876.585C1259.36 876.112 1259.17 875.658 1258.84 875.323C1258.5 874.989 1258.05 874.801 1257.57 874.801Z" fill="#E4E4E4"/>
<path d="M1257.57 867.743H1202.84C1202.37 867.743 1201.91 867.931 1201.58 868.266C1201.24 868.601 1201.06 869.056 1201.06 869.53C1201.06 870.003 1201.24 870.458 1201.58 870.793C1201.91 871.128 1202.37 871.316 1202.84 871.316H1257.57C1257.81 871.316 1258.04 871.27 1258.26 871.18C1258.47 871.09 1258.67 870.959 1258.84 870.793C1259 870.627 1259.13 870.43 1259.22 870.213C1259.31 869.996 1259.36 869.764 1259.36 869.53C1259.36 869.295 1259.31 869.063 1259.22 868.846C1259.13 868.629 1259 868.432 1258.84 868.266C1258.67 868.101 1258.47 867.969 1258.26 867.879C1258.04 867.789 1257.81 867.743 1257.57 867.743Z" fill="#E4E4E4"/>
<path d="M1226.57 860.688H1202.84C1202.37 860.688 1201.91 860.876 1201.58 861.211C1201.25 861.546 1201.06 862 1201.06 862.473C1201.06 862.946 1201.25 863.4 1201.58 863.735C1201.91 864.07 1202.37 864.258 1202.84 864.258H1226.57C1227.04 864.258 1227.49 864.07 1227.83 863.735C1228.16 863.4 1228.35 862.946 1228.35 862.473C1228.35 862 1228.16 861.546 1227.83 861.211C1227.49 860.876 1227.04 860.688 1226.57 860.688Z" fill="#E4E4E4"/>
<path d="M1257.57 845.909H1202.84C1202.37 845.911 1201.92 846.099 1201.58 846.434C1201.25 846.769 1201.06 847.223 1201.06 847.696C1201.06 848.168 1201.25 848.622 1201.58 848.957C1201.92 849.292 1202.37 849.481 1202.84 849.482H1257.57C1257.81 849.483 1258.04 849.437 1258.26 849.348C1258.48 849.258 1258.67 849.127 1258.84 848.961C1259.01 848.795 1259.14 848.598 1259.23 848.38C1259.32 848.163 1259.37 847.931 1259.37 847.696C1259.37 847.461 1259.32 847.228 1259.23 847.011C1259.14 846.794 1259.01 846.596 1258.84 846.43C1258.67 846.264 1258.48 846.133 1258.26 846.044C1258.04 845.954 1257.81 845.908 1257.57 845.909Z" fill="#E4E4E4"/>
<path d="M1257.57 838.854H1202.84C1202.37 838.854 1201.91 839.042 1201.58 839.377C1201.25 839.712 1201.06 840.166 1201.06 840.639C1201.06 841.112 1201.25 841.566 1201.58 841.901C1201.91 842.236 1202.37 842.424 1202.84 842.424H1257.57C1258.05 842.424 1258.5 842.236 1258.84 841.901C1259.17 841.566 1259.36 841.112 1259.36 840.639C1259.36 840.166 1259.17 839.712 1258.84 839.377C1258.5 839.042 1258.05 838.854 1257.57 838.854Z" fill="#E4E4E4"/>
<path d="M1226.57 831.796H1202.84C1202.37 831.796 1201.91 831.984 1201.58 832.319C1201.24 832.654 1201.06 833.109 1201.06 833.582C1201.06 834.056 1201.24 834.51 1201.58 834.845C1201.91 835.18 1202.37 835.369 1202.84 835.369H1226.57C1227.04 835.369 1227.5 835.18 1227.83 834.845C1228.17 834.51 1228.35 834.056 1228.35 833.582C1228.35 833.109 1228.17 832.654 1227.83 832.319C1227.5 831.984 1227.04 831.796 1226.57 831.796Z" fill="#E4E4E4"/>
<path d="M1257.57 817.017H1202.84C1202.37 817.018 1201.92 817.207 1201.58 817.542C1201.25 817.877 1201.06 818.33 1201.06 818.803C1201.06 819.276 1201.25 819.729 1201.58 820.064C1201.92 820.399 1202.37 820.588 1202.84 820.589H1257.57C1257.81 820.59 1258.04 820.544 1258.26 820.455C1258.48 820.366 1258.67 820.234 1258.84 820.068C1259.01 819.902 1259.14 819.705 1259.23 819.488C1259.32 819.271 1259.37 819.038 1259.37 818.803C1259.37 818.568 1259.32 818.335 1259.23 818.118C1259.14 817.901 1259.01 817.704 1258.84 817.538C1258.67 817.372 1258.48 817.24 1258.26 817.151C1258.04 817.062 1257.81 817.016 1257.57 817.017Z" fill="#E4E4E4"/>
<path d="M1257.57 809.962H1202.84C1202.37 809.963 1201.92 810.152 1201.58 810.487C1201.25 810.822 1201.06 811.275 1201.06 811.748C1201.06 812.221 1201.25 812.675 1201.58 813.01C1201.92 813.344 1202.37 813.533 1202.84 813.535H1257.57C1257.81 813.535 1258.04 813.49 1258.26 813.4C1258.48 813.311 1258.67 813.179 1258.84 813.013C1259.01 812.848 1259.14 812.65 1259.23 812.433C1259.32 812.216 1259.37 811.983 1259.37 811.748C1259.37 811.513 1259.32 811.281 1259.23 811.063C1259.14 810.846 1259.01 810.649 1258.84 810.483C1258.67 810.317 1258.48 810.186 1258.26 810.096C1258.04 810.007 1257.81 809.961 1257.57 809.962Z" fill="#E4E4E4"/>
<path d="M1226.57 802.903H1202.84C1202.37 802.903 1201.91 803.092 1201.58 803.427C1201.24 803.762 1201.06 804.216 1201.06 804.69C1201.06 805.164 1201.24 805.618 1201.58 805.953C1201.91 806.288 1202.37 806.476 1202.84 806.476H1226.57C1226.8 806.476 1227.03 806.43 1227.25 806.34C1227.47 806.25 1227.66 806.119 1227.83 805.953C1228 805.787 1228.13 805.59 1228.22 805.373C1228.31 805.157 1228.35 804.924 1228.35 804.69C1228.35 804.455 1228.31 804.223 1228.22 804.006C1228.13 803.789 1228 803.592 1227.83 803.427C1227.66 803.261 1227.47 803.129 1227.25 803.039C1227.03 802.95 1226.8 802.903 1226.57 802.903Z" fill="#E4E4E4"/>
<path d="M635.814 472.669C664.982 472.669 688.628 449.014 688.628 419.835C688.628 390.655 664.982 367 635.814 367C606.646 367 583 390.655 583 419.835C583 449.014 606.646 472.669 635.814 472.669Z" fill="#FFB6B6"/>
<path d="M697.416 385.322C691.861 376.724 681.435 370.993 671.329 372.604C670.388 366.151 667.696 360.081 663.545 355.053C659.395 350.025 653.945 346.233 647.789 344.089C641.634 341.946 635.008 341.533 628.634 342.895C622.259 344.258 616.381 347.343 611.639 351.817C610.079 350.718 608.262 350.041 606.364 349.851C604.467 349.661 602.552 349.965 600.805 350.732C597.327 352.314 594.301 354.744 592.004 357.799C586.205 365.034 582.475 373.707 581.212 382.894C579.949 392.081 581.2 401.439 584.831 409.972C583.596 405.48 588.096 401.254 592.642 400.246C597.189 399.238 601.958 400.192 606.569 399.535C612.478 398.694 617.79 395.265 623.709 394.493C628.683 393.844 633.685 395.12 638.536 396.399C643.386 397.678 648.376 398.982 653.357 398.39C658.338 397.798 664.755 416.684 664.669 429.986C664.652 432.506 665.171 435.743 667.634 436.278C670.667 436.936 672.424 432.749 675.31 431.608C676.641 431.227 678.067 431.377 679.289 432.027C680.511 432.677 681.433 433.776 681.86 435.093C682.224 436.431 682.263 437.837 681.974 439.194C681.685 440.551 681.076 441.818 680.198 442.892C678.424 445.021 676.317 446.848 673.961 448.305L675.149 449.294C677.127 451.908 681.229 452.021 684.079 450.404C686.804 448.557 689.011 446.043 690.49 443.101C695.763 434.327 700.388 424.979 702.249 414.912C704.11 404.845 702.971 393.92 697.416 385.322Z" fill="#2F2E41"/>
<path d="M699.081 1340.8L670.559 1340.8L656.99 1230.74L699.088 1230.74L699.081 1340.8Z" fill="#FFB6B6"/>
<path d="M700.086 1370.57L612.374 1370.56V1369.45C612.374 1360.4 615.971 1351.71 622.374 1345.31C628.776 1338.9 637.459 1335.3 646.514 1335.3H646.516L662.538 1323.14L692.431 1335.3L700.088 1335.3L700.086 1370.57Z" fill="#2F2E41"/>
<path d="M750.516 1290.42L728.139 1308.11L649.263 1230.19L682.29 1204.07L750.516 1290.42Z" fill="#FFB6B6"/>
<path d="M769.758 1313.14L700.948 1367.56L700.26 1366.69C694.646 1359.58 692.082 1350.54 693.134 1341.54C694.186 1332.54 698.767 1324.33 705.87 1318.72L705.871 1318.72L710.902 1299.24L741.891 1290.23L747.898 1285.48L769.758 1313.14Z" fill="#2F2E41"/>
<path d="M551.587 824.896L549.846 857.013L558.315 867.249L557.344 899.373L565.562 920.4L571.341 987.294L652.282 1266.41L725.221 1243.01L645.573 982.819L741.402 980.425L744.644 833.713L727.662 800.871L551.587 824.896Z" fill="#2F2E41"/>
<path d="M732.186 958.307L741.402 980.424L705.767 1291.87L655.768 1295.52L634.178 947.337L732.186 958.307Z" fill="#2F2E41"/>
<path d="M683.185 499.347L666.767 476.612L613.754 478.738L612.737 496.243L577.521 828.999L612.105 828.223L655.036 838.25L737.608 809.339L683.185 499.347Z" fill="#C09AEC"/>
<path d="M591.121 835.152H509.818L531.03 685.373L539.63 624.663C539.63 624.663 533.542 581.273 530.595 558.603C530.32 556.184 530.739 553.736 531.803 551.546C532.767 549.494 534.026 547.594 535.54 545.907C545.428 534.499 567.671 524.606 581.618 519.193C588.801 516.421 593.794 514.826 593.794 514.826L612.734 496.249C639.921 530.23 591.121 835.152 591.121 835.152Z" fill="#3F3D56"/>
<path d="M672.887 486.976L698.679 501.762C698.679 501.762 775.065 514.313 782.493 543.013L754.375 627.921V806.368L686.212 833.713C686.212 833.713 627.415 545.419 672.887 486.976Z" fill="#3F3D56"/>
<path opacity="0.4" d="M646.779 940.127L634.178 1086.15L655.634 1256.09" fill="black"/>
<path d="M342.532 668.103C344.633 666.593 347.04 665.561 349.582 665.082C352.124 664.602 354.741 664.686 357.248 665.328C359.754 665.97 362.089 667.153 364.089 668.795C366.089 670.438 367.704 672.499 368.822 674.833L431.313 667.763L416.501 696.906L359.429 699.152C355.385 700.77 350.888 700.848 346.79 699.37C342.692 697.893 339.278 694.963 337.195 691.136C335.112 687.308 334.505 682.85 335.489 678.605C336.473 674.36 338.979 670.623 342.532 668.103L342.532 668.103Z" fill="#FFB6B6"/>
<path d="M604.814 540.496L622.697 551.183L522.542 692.333L400.296 702.724L395.428 667.807L485.498 640.774L530.019 554.446L604.814 540.496Z" fill="#3F3D56"/>
<path d="M969.323 656.171C967.222 654.661 964.815 653.63 962.273 653.15C959.731 652.671 957.114 652.755 954.608 653.396C952.101 654.038 949.766 655.222 947.766 656.864C945.766 658.506 944.151 660.567 943.033 662.901L880.542 655.831L895.354 684.974L952.426 687.22C956.47 688.838 960.968 688.916 965.065 687.439C969.163 685.961 972.577 683.031 974.66 679.204C976.743 675.377 977.35 670.918 976.366 666.673C975.382 662.428 972.876 658.692 969.323 656.171V656.171Z" fill="#FFB6B6"/>
<path d="M707.04 528.564L689.158 539.252L789.313 680.401L911.56 690.792L916.426 655.876L826.358 628.843L781.837 542.514L707.04 528.564Z" fill="#3F3D56"/>
<path d="M463.54 495.352V493.486H432.28V449.969H430.42V493.486H394.593V459.879C393.967 460.372 393.349 460.879 392.738 461.4V493.486H369.076C368.813 494.103 368.559 494.725 368.32 495.352H392.738V531.919H362.42C362.449 532.546 362.492 533.163 362.544 533.785H392.738V562.957H370.118C370.395 563.584 370.687 564.201 370.993 564.813H392.738V589.337H394.593V564.813H430.42V589.337H432.28V564.813H463.54V562.957H432.28C432.279 559.126 433.033 555.332 434.498 551.793C435.963 548.253 438.111 545.037 440.819 542.327C443.527 539.618 446.742 537.47 450.281 536.004C453.819 534.538 457.611 533.784 461.441 533.785H463.54V531.919H432.28V495.352H463.54ZM430.42 562.957H394.593V533.785H430.42V562.957ZM430.42 531.919H394.593V531.187C394.594 526.481 395.521 521.821 397.321 517.473C399.122 513.125 401.761 509.174 405.088 505.847C408.415 502.519 412.364 499.88 416.71 498.079C421.057 496.278 425.715 495.351 430.42 495.352V531.919Z" fill="#E6E6E6"/>
<path d="M735.137 237.159C734.893 237.26 734.619 237.259 734.375 237.158C734.131 237.057 733.937 236.863 733.836 236.62L731.248 230.362C731.147 230.118 731.147 229.844 731.248 229.6C731.349 229.356 731.543 229.162 731.787 229.061C732.031 228.96 732.305 228.96 732.549 229.061C732.793 229.162 732.986 229.356 733.087 229.6L735.676 235.858C735.776 236.102 735.776 236.376 735.675 236.62C735.574 236.864 735.38 237.058 735.137 237.159Z" fill="#3F3D56"/>
<path d="M787.348 190.803L779.622 172.125C779.035 170.706 778.173 169.416 777.088 168.329C776.002 167.242 774.713 166.38 773.295 165.791C771.876 165.203 770.355 164.9 768.82 164.899C767.284 164.899 765.763 165.201 764.344 165.789L724.788 182.164C723.369 182.752 722.079 183.613 720.993 184.699C719.907 185.785 719.045 187.075 718.457 188.494C717.868 189.913 717.565 191.434 717.565 192.971C717.564 194.507 717.867 196.029 718.454 197.448L760.841 299.916C761.429 301.336 762.29 302.626 763.375 303.713C764.461 304.8 765.75 305.662 767.168 306.25C768.587 306.839 770.108 307.142 771.643 307.142C773.179 307.143 774.7 306.841 776.119 306.253L815.675 289.877C817.094 289.29 818.384 288.428 819.47 287.342C820.556 286.256 821.418 284.967 822.006 283.548C822.595 282.129 822.898 280.607 822.898 279.071C822.899 277.535 822.597 276.013 822.009 274.594L792.848 204.098C792.937 204.061 793.019 204.007 793.087 203.938C793.156 203.87 793.21 203.789 793.247 203.699C793.284 203.61 793.303 203.514 793.304 203.417C793.304 203.32 793.284 203.224 793.247 203.134L788.312 191.203C788.275 191.113 788.22 191.032 788.152 190.963C788.083 190.895 788.002 190.84 787.913 190.803C787.823 190.766 787.727 190.747 787.63 190.747C787.534 190.747 787.438 190.766 787.348 190.803Z" fill="#3F3D56"/>
<path d="M777.351 173.149L819.678 275.47C820.558 277.595 820.564 279.982 819.695 282.112C818.826 284.241 817.152 285.942 815.036 286.844C815.01 286.86 814.981 286.874 814.952 286.886L775.203 303.341C773.062 304.227 770.657 304.226 768.517 303.338C766.376 302.451 764.676 300.749 763.79 298.607L721.463 196.286C721.025 195.226 720.8 194.089 720.8 192.942C720.801 191.795 721.028 190.659 721.467 189.599C721.907 188.539 722.551 187.576 723.363 186.766C724.174 185.955 725.138 185.312 726.197 184.874L731.018 182.878C731.021 183.56 731.192 184.23 731.515 184.829C731.839 185.429 732.304 185.94 732.872 186.317C733.439 186.694 734.091 186.926 734.769 186.992C735.447 187.057 736.13 186.955 736.759 186.694L759.421 177.312C759.916 177.107 760.365 176.805 760.742 176.425C761.13 176.043 761.439 175.588 761.651 175.085C761.863 174.583 761.974 174.044 761.977 173.499C761.981 172.954 761.876 172.414 761.67 171.909C761.464 171.404 761.161 170.945 760.777 170.558L765.946 168.418C768.086 167.533 770.489 167.534 772.628 168.421C774.767 169.308 776.466 171.009 777.351 173.149Z" fill="#C09AEC"/>
<path d="M730.721 226.485C730.477 226.586 730.203 226.585 729.959 226.484C729.715 226.383 729.522 226.19 729.42 225.946L726.832 219.688C726.731 219.444 726.731 219.17 726.832 218.926C726.933 218.682 727.127 218.488 727.371 218.387C727.615 218.286 727.889 218.286 728.133 218.387C728.377 218.489 728.571 218.683 728.672 218.927L731.26 225.184C731.361 225.428 731.361 225.702 731.259 225.946C731.158 226.19 730.965 226.384 730.721 226.485Z" fill="#3F3D56"/>
<path d="M725.512 214.414C725.268 214.515 724.994 214.514 724.751 214.413C724.507 214.312 724.313 214.118 724.212 213.875L721.623 207.617C721.573 207.496 721.547 207.366 721.546 207.235C721.546 207.104 721.572 206.974 721.622 206.853C721.672 206.732 721.745 206.622 721.838 206.529C721.93 206.437 722.04 206.363 722.161 206.313C722.282 206.263 722.412 206.237 722.543 206.237C722.674 206.237 722.804 206.263 722.925 206.314C723.046 206.364 723.155 206.438 723.248 206.531C723.34 206.624 723.413 206.734 723.463 206.855L726.051 213.113C726.152 213.357 726.152 213.631 726.051 213.875C725.95 214.119 725.756 214.313 725.512 214.414Z" fill="#3F3D56"/>
<path d="M740.083 180.359C739.982 180.115 739.983 179.841 740.084 179.597C740.185 179.353 740.379 179.159 740.622 179.058L746.877 176.468C747.121 176.367 747.395 176.367 747.639 176.469C747.883 176.57 748.077 176.764 748.178 177.008C748.279 177.252 748.279 177.526 748.178 177.77C748.076 178.014 747.883 178.208 747.639 178.309L741.384 180.898C741.14 180.999 740.866 180.999 740.622 180.897C740.378 180.796 740.184 180.603 740.083 180.359Z" fill="white"/>
<path d="M750.753 176.937C751.303 176.937 751.749 176.491 751.749 175.941C751.749 175.391 751.303 174.945 750.753 174.945C750.204 174.945 749.758 175.391 749.758 175.941C749.758 176.491 750.204 176.937 750.753 176.937Z" fill="white"/>
<path d="M966.659 618.833C966.534 618.833 966.408 618.83 966.281 618.826C964.803 618.772 963.36 618.362 962.074 617.63C960.788 616.899 959.698 615.867 958.896 614.623C952.891 605.644 945.521 597.658 937.053 590.953C931.927 586.855 926.57 583.043 921.39 579.357C908.027 569.851 895.441 560.898 888.455 548.528C873.223 521.553 891.161 483.98 916.787 467.13C945.53 448.232 983.336 445.268 1019.91 444.879C1023.71 444.839 1027.51 444.819 1031.32 444.819C1097.22 444.845 1162.98 450.86 1227.79 462.791C1249.34 466.768 1271.9 471.641 1290.02 483.466C1308.04 495.221 1319 513.733 1317.93 530.628C1316.37 555.292 1290.23 573.721 1266.43 578.539C1243.75 583.128 1220.19 580.027 1195.24 576.743C1189.73 576.019 1184.04 575.269 1178.4 574.618C1117.2 567.541 1002.23 589.353 997.37 590.285L992.545 591.21L973.821 615.314C972.979 616.413 971.894 617.302 970.652 617.912C969.41 618.523 968.043 618.838 966.659 618.833Z" fill="#C09AEC"/>
<path d="M1239.19 498.513H980.518C979.026 498.513 977.594 497.92 976.539 496.864C975.483 495.808 974.89 494.376 974.89 492.882C974.89 491.389 975.483 489.957 976.539 488.901C977.594 487.845 979.026 487.252 980.518 487.252H1239.19C1240.69 487.252 1242.12 487.845 1243.17 488.901C1244.23 489.957 1244.82 491.389 1244.82 492.882C1244.82 494.376 1244.23 495.808 1243.17 496.864C1242.12 497.92 1240.69 498.513 1239.19 498.513Z" fill="white"/>
<path d="M1239.19 533.073H980.518C979.027 533.073 977.597 532.48 976.542 531.426C975.487 530.371 974.894 528.941 974.892 527.449C974.891 525.957 975.481 524.525 976.534 523.469C977.586 522.412 979.015 521.816 980.507 521.812H1239.19C1240.68 521.815 1242.11 522.409 1243.17 523.465C1244.22 524.521 1244.81 525.951 1244.81 527.443C1244.81 528.935 1244.22 530.365 1243.17 531.421C1242.11 532.476 1240.68 533.071 1239.19 533.073Z" fill="white"/>
<path d="M1010.66 567.633H980.518C979.027 567.63 977.598 567.036 976.545 565.98C975.492 564.925 974.9 563.494 974.9 562.003C974.9 560.511 975.492 559.08 976.545 558.025C977.598 556.969 979.027 556.375 980.518 556.372H1010.66C1012.15 556.375 1013.58 556.969 1014.64 558.025C1015.69 559.08 1016.28 560.511 1016.28 562.003C1016.28 563.494 1015.69 564.925 1014.64 565.98C1013.58 567.036 1012.15 567.63 1010.66 567.633Z" fill="white"/>
<path d="M969.854 658.087C984.963 658.087 997.212 645.834 997.212 630.718C997.212 615.603 984.963 603.35 969.854 603.35C954.745 603.35 942.496 615.603 942.496 630.718C942.496 645.834 954.745 658.087 969.854 658.087Z" fill="white"/>
<path d="M969.854 658.421C964.377 658.421 959.023 656.796 954.469 653.752C949.915 650.708 946.366 646.382 944.27 641.32C942.174 636.258 941.626 630.688 942.694 625.314C943.763 619.94 946.4 615.004 950.273 611.13C954.146 607.255 959.08 604.617 964.451 603.548C969.823 602.479 975.391 603.028 980.451 605.124C985.511 607.221 989.836 610.772 992.879 615.327C995.922 619.883 997.546 625.239 997.546 630.718C997.537 638.063 994.617 645.104 989.426 650.298C984.234 655.491 977.196 658.413 969.854 658.421Z" fill="#3F3D56"/>
<path d="M967.806 641.656C967.747 641.656 967.689 641.654 967.631 641.651C967.116 641.626 966.612 641.49 966.154 641.252C965.696 641.014 965.295 640.68 964.979 640.272L960.407 634.392C960.118 634.021 959.905 633.597 959.781 633.143C959.656 632.69 959.622 632.216 959.68 631.75C959.738 631.283 959.888 630.832 960.12 630.424C960.353 630.015 960.663 629.656 961.034 629.367L961.199 629.239C961.57 628.95 961.994 628.737 962.447 628.612C962.901 628.487 963.374 628.453 963.841 628.511C964.308 628.57 964.758 628.719 965.167 628.952C965.576 629.185 965.934 629.495 966.223 629.867C966.454 630.164 966.746 630.407 967.08 630.58C967.413 630.753 967.78 630.852 968.156 630.871C968.531 630.889 968.906 630.826 969.255 630.686C969.604 630.546 969.918 630.332 970.177 630.059L979.46 620.255C980.113 619.567 981.013 619.166 981.962 619.14C982.91 619.114 983.83 619.466 984.52 620.118L984.673 620.263C985.014 620.586 985.288 620.974 985.48 621.403C985.671 621.833 985.777 622.296 985.789 622.766C985.802 623.236 985.722 623.704 985.554 624.143C985.386 624.582 985.133 624.984 984.809 625.325L970.403 640.537C970.069 640.89 969.667 641.172 969.22 641.364C968.773 641.557 968.292 641.656 967.806 641.656Z" fill="white"/>
<path d="M459.026 276.937L442.289 176.243C441.952 174.205 442.438 172.116 443.639 170.435C444.84 168.755 446.658 167.619 448.695 167.278L524.711 154.633C526.749 154.296 528.836 154.782 530.517 155.983C532.197 157.185 533.332 159.004 533.673 161.041L550.41 261.735C550.747 263.773 550.261 265.862 549.06 267.543C547.859 269.223 546.041 270.359 544.004 270.7L467.988 283.345C465.95 283.682 463.863 283.196 462.182 281.995C460.502 280.793 459.367 278.974 459.026 276.937Z" fill="#3F3D56"/>
<path d="M459.802 245.554L449.041 180.819C448.726 178.91 449.181 176.954 450.306 175.38C451.431 173.805 453.134 172.742 455.041 172.422L520.37 161.555C522.279 161.239 524.234 161.694 525.808 162.819C527.381 163.945 528.444 165.648 528.764 167.557L543.658 257.16C543.973 259.069 543.518 261.025 542.393 262.599C541.268 264.173 539.565 265.237 537.658 265.556L497.188 272.289C488.687 273.693 479.977 271.667 472.969 266.655C465.96 261.643 461.225 254.054 459.802 245.554Z" fill="white"/>
<path d="M462.622 197.122C462.314 195.256 462.758 193.345 463.857 191.806C464.956 190.268 466.62 189.229 468.485 188.917L513.803 181.378C514.727 181.224 515.672 181.254 516.583 181.466C517.495 181.677 518.357 182.067 519.118 182.611C519.88 183.156 520.527 183.845 521.022 184.64C521.517 185.435 521.851 186.319 522.005 187.243C522.158 188.167 522.129 189.112 521.917 190.024C521.706 190.937 521.317 191.798 520.772 192.56C520.228 193.322 519.539 193.969 518.744 194.465C517.95 194.96 517.066 195.294 516.142 195.448L470.823 202.987C468.959 203.295 467.048 202.85 465.51 201.751C463.973 200.651 462.934 198.986 462.622 197.122Z" fill="#C09AEC"/>
<path d="M466.259 219.008C465.951 217.143 466.396 215.231 467.495 213.693C468.594 212.155 470.258 211.116 472.122 210.804L517.441 203.265C519.306 202.954 521.218 203.398 522.756 204.498C524.294 205.598 525.333 207.264 525.643 209.13C525.953 210.996 525.509 212.908 524.41 214.447C523.31 215.986 521.645 217.024 519.78 217.335L474.461 224.874C472.596 225.182 470.685 224.737 469.148 223.638C467.61 222.538 466.572 220.873 466.259 219.008Z" fill="#C09AEC"/>
<path d="M469.898 240.894C469.59 239.029 470.034 237.117 471.133 235.579C472.232 234.041 473.896 233.001 475.76 232.689L521.079 225.15C522.003 224.997 522.947 225.027 523.859 225.238C524.771 225.45 525.633 225.839 526.394 226.384C527.156 226.928 527.803 227.618 528.298 228.412C528.793 229.207 529.127 230.092 529.281 231.015C529.434 231.939 529.405 232.884 529.193 233.797C528.981 234.709 528.592 235.571 528.048 236.333C527.504 237.095 526.815 237.742 526.02 238.237C525.226 238.733 524.341 239.067 523.418 239.22L478.099 246.759C476.234 247.067 474.324 246.623 472.786 245.523C471.249 244.424 470.21 242.759 469.898 240.894Z" fill="#C09AEC"/>
<path d="M856.192 1301L857.397 1273.9C869.957 1267.18 883.966 1263.63 898.208 1263.56C878.607 1279.59 881.057 1310.5 867.768 1332.05C863.572 1338.75 857.924 1344.41 851.243 1348.62C844.562 1352.83 837.02 1355.48 829.175 1356.38L812.772 1366.43C810.521 1353.88 811.018 1340.99 814.227 1328.65C817.436 1316.3 823.281 1304.8 831.36 1294.94C835.947 1289.45 841.207 1284.56 847.016 1280.39C850.944 1290.75 856.192 1301 856.192 1301Z" fill="#F2F2F2"/>
<path d="M1073.67 1369.35C1073.67 1369.7 1073.6 1370.05 1073.47 1370.37C1073.34 1370.69 1073.14 1370.98 1072.9 1371.23C1072.65 1371.47 1072.36 1371.67 1072.04 1371.8C1071.72 1371.93 1071.37 1372 1071.02 1372H358.746C358.045 1372 357.371 1371.72 356.875 1371.22C356.379 1370.73 356.1 1370.05 356.1 1369.35C356.1 1368.65 356.379 1367.98 356.875 1367.48C357.371 1366.98 358.045 1366.71 358.746 1366.71H1071.02C1071.37 1366.7 1071.72 1366.77 1072.04 1366.9C1072.36 1367.04 1072.65 1367.23 1072.9 1367.48C1073.14 1367.72 1073.34 1368.02 1073.47 1368.34C1073.6 1368.66 1073.67 1369 1073.67 1369.35Z" fill="#CCCCCC"/>
<path d="M360.463 654.464C347.83 654.212 279.975 652.264 268.848 652.743C268.219 650.539 247.125 677.582 246.612 677.749C246.27 678.11 246.02 678.549 245.885 679.027C245.749 679.506 245.731 680.01 245.832 680.497C245.933 680.984 246.151 681.439 246.466 681.823C246.781 682.208 247.185 682.511 247.642 682.705C248.882 683.459 358.274 681.434 359.599 681.699C360.172 681.689 360.731 681.519 361.212 681.205C361.692 680.892 362.075 680.45 362.315 679.929L363.046 678.29C363.122 675.488 364.039 661.164 363.215 658.715C363.418 658.255 363.502 657.752 363.462 657.252C363.422 656.751 363.258 656.268 362.985 655.847C362.712 655.425 362.339 655.078 361.898 654.837C361.458 654.596 360.965 654.467 360.463 654.464Z" fill="#3F3D56"/>
<path opacity="0.17" d="M363.045 678.288C362.403 679.831 361.582 681.771 359.598 681.699L248.797 682.943C248.273 682.937 247.759 682.797 247.305 682.535C246.851 682.273 246.472 681.899 246.204 681.448C245.936 680.998 245.789 680.486 245.776 679.962C245.763 679.437 245.885 678.919 246.13 678.455L363.045 678.288Z" fill="black"/>
<path d="M269.366 652.412C268.173 650.348 238.55 503.716 236.078 502.489L215.853 477.738L214.046 476.379C211.532 474.997 205.502 475.931 206.045 479.772C210.797 502.561 241.358 632.355 242.027 652.59L245.706 678.369C245.772 678.808 245.929 679.228 246.166 679.602C246.404 679.977 246.718 680.297 247.087 680.543C247.456 680.788 247.873 680.954 248.31 681.029C248.747 681.103 249.195 681.086 249.624 680.977C250.679 680.863 251.686 680.476 252.545 679.855C253.405 679.234 254.088 678.399 254.527 677.433C254.803 676.523 270.751 652.94 269.366 652.412Z" fill="#3F3D56"/>
<path opacity="0.17" d="M215.848 477.739L254.53 677.437C253.237 680.713 247.183 683.008 245.774 678.711C245.749 678.705 206.09 479.894 206.05 479.775C205.627 474.991 213.53 474.839 215.848 477.739Z" fill="black"/>
<path d="M217.013 485.904L236.66 513.299L258.711 618.065L248.459 627.01L217.013 485.904Z" fill="#C09AEC"/>
<path d="M347.782 668.59L353.217 668.812C353.302 667.219 353.565 665.642 354.001 664.108C354.818 660.221 355.551 655.602 352.161 655.619C349.86 655.398 349.077 658.312 348.668 661.483C348.562 663.872 348.266 666.249 347.782 668.59Z" fill="#2F2E41"/>
<path d="M316.602 661.278L320.265 661.414L322.037 661.483C322.003 659.539 322.906 655.534 320.708 654.545C320.359 654.395 319.981 654.319 319.601 654.324C317.539 654.204 316.926 655.773 316.738 657.579C316.619 658.67 316.67 659.829 316.636 660.733C316.636 660.92 316.619 661.108 316.602 661.278Z" fill="#2F2E41"/>
<path d="M305.749 660.835L309.429 660.989L311.184 661.057C311.15 658.824 312.325 653.949 308.747 653.881C305.442 653.694 305.868 657.904 305.782 660.29C305.783 660.477 305.765 660.665 305.749 660.835Z" fill="#2F2E41"/>
<path d="M294.896 660.409L298.559 660.545L300.331 660.613C300.297 658.397 301.472 653.523 297.894 653.454C294.589 653.25 295.015 657.46 294.93 659.863C294.929 660.051 294.912 660.238 294.896 660.409Z" fill="#2F2E41"/>
<path d="M284.042 659.966L287.722 660.12L289.477 660.188C289.443 657.955 290.619 653.097 287.041 653.012C283.735 652.824 284.161 657.034 284.076 659.421C284.076 659.608 284.059 659.796 284.042 659.966Z" fill="#2F2E41"/>
<path d="M273.188 659.54L276.852 659.676L278.624 659.744C278.59 657.699 279.578 653.42 276.954 652.688H276.937C276.694 652.616 276.441 652.581 276.187 652.585C275.878 652.558 275.566 652.587 275.267 652.67H275.25C272.967 653.267 273.291 656.846 273.223 658.994C273.223 659.182 273.206 659.369 273.188 659.54Z" fill="#2F2E41"/>
<path d="M336.826 658.381L342.261 658.602C342.261 658.398 342.261 658.176 342.278 657.92C342.413 656.624 342.436 655.318 342.347 654.017C342.159 652.585 341.546 651.46 339.825 651.426C338.07 651.324 337.371 652.449 337.099 653.898C337.035 654.144 336.99 654.395 336.962 654.648V654.665C336.826 655.994 336.911 657.426 336.826 658.381Z" fill="#2F2E41"/>
<path d="M325.973 657.937L331.408 658.159C331.523 656.696 331.557 655.228 331.51 653.761C331.357 652.262 330.76 651.034 328.971 651C327.165 650.881 326.467 652.108 326.194 653.625C325.939 655.091 326.075 656.847 325.973 657.937Z" fill="#2F2E41"/>
<path d="M315.12 657.512L316.738 657.58L320.555 657.733C320.538 656.915 320.691 655.722 320.708 654.546C320.723 654.193 320.711 653.84 320.674 653.489C320.538 651.904 319.975 650.591 318.118 650.557C316.227 650.455 315.563 651.768 315.324 653.37C315.085 654.801 315.222 656.455 315.12 657.512Z" fill="#2F2E41"/>
<path d="M336.928 668.165L342.363 668.369C342.346 666.153 343.505 661.279 339.927 661.21C336.349 660.989 337.133 665.932 336.928 668.165Z" fill="#2F2E41"/>
<path d="M326.075 667.721L331.51 667.943C331.493 665.71 332.652 660.835 329.074 660.767C325.496 660.562 326.28 665.505 326.075 667.721Z" fill="#2F2E41"/>
<path d="M315.222 667.295L320.657 667.499C320.64 665.914 321.236 662.982 320.265 661.414C320.053 661.067 319.751 660.784 319.391 660.595C319.031 660.406 318.626 660.318 318.22 660.34C317.663 660.281 317.102 660.42 316.636 660.733C314.898 661.874 315.392 665.488 315.222 667.295Z" fill="#2F2E41"/>
<path d="M304.369 666.851L309.804 667.073C309.787 665.488 310.366 662.573 309.429 660.988C309.217 660.635 308.913 660.347 308.55 660.155C308.187 659.963 307.778 659.874 307.367 659.897C306.809 659.836 306.248 659.975 305.783 660.289C304.045 661.465 304.539 665.062 304.369 666.851Z" fill="#2F2E41"/>
<path d="M293.515 666.426L298.95 666.63C298.933 665.045 299.53 662.113 298.558 660.545C298.347 660.198 298.045 659.915 297.685 659.725C297.324 659.536 296.92 659.449 296.514 659.471C295.956 659.412 295.395 659.551 294.929 659.863C293.191 661.005 293.686 664.619 293.515 666.426Z" fill="#2F2E41"/>
<path d="M282.662 665.982L288.097 666.204C288.08 664.619 288.66 661.704 287.722 660.119C287.512 659.765 287.209 659.476 286.845 659.283C286.481 659.091 286.072 659.002 285.661 659.028C285.103 658.966 284.541 659.105 284.076 659.42C282.338 660.596 282.833 664.192 282.662 665.982Z" fill="#2F2E41"/>
<path d="M271.809 665.556L277.244 665.761C277.227 664.176 277.806 661.261 276.852 659.676C276.642 659.327 276.34 659.043 275.979 658.854C275.619 658.664 275.214 658.577 274.807 658.602C274.249 658.543 273.689 658.682 273.223 658.994C271.485 660.153 271.979 663.75 271.809 665.556Z" fill="#2F2E41"/>
<circle cx="603" cy="420" r="4" fill="black"/>
<circle cx="632" cy="420" r="4" fill="black"/>
</g>
<defs>
<clipPath id="clip0_55_3">
<rect width="1136" height="1243" fill="white" transform="translate(182 129)"/>
</clipPath>
</defs>
</svg>
